HIERARCHY
ROOT root
{
	OFFSET	0	13.1	24.9
	CHANNELS 6  Xposition Yposition Zposition Xrotation Yrotation Zrotation
	JOINT spine_1
	{
		OFFSET	0	9.99999	0
		CHANNELS 3  Xrotation Yrotation Zrotation
		JOINT spine_2
		{
			OFFSET	0	112	-10
			CHANNELS 3  Xrotation Yrotation Zrotation
			JOINT spine_3
			{
				OFFSET	0	206.5	19.3
				CHANNELS 3  Xrotation Yrotation Zrotation
				JOINT spine_4
				{
					OFFSET	0	110.4	14.6
					CHANNELS 3  Xrotation Yrotation Zrotation
					JOINT neck_1
					{
						OFFSET	0	71.8	-50.3
						CHANNELS 3  Xrotation Yrotation Zrotation
						JOINT neck_2
						{
							OFFSET	0	86.2	-25.8
							CHANNELS 3  Xrotation Yrotation Zrotation
							JOINT head_ee
							{
								OFFSET	0	179.8	-8.7
								CHANNELS 3  Xrotation Yrotation Zrotation
								End Site
								{
									OFFSET	1	0	0
								}
							}
						}
					}
					JOINT left_clavicle
					{
						OFFSET	-43.2	22.4	-70.8
						CHANNELS 3  Xrotation Yrotation Zrotation
						JOINT left_shoulder
						{
							OFFSET	-93.9	-5.79999	48.7
							CHANNELS 3  Xrotation Yrotation Zrotation
							JOINT left_elbow
							{
								OFFSET	-291.4	-30.8	15.2
								CHANNELS 3  Xrotation Yrotation Zrotation
								JOINT left_lowarm_twist
								{
									OFFSET	-110.7	-3.89999	13.6
									CHANNELS 3  Xrotation Yrotation Zrotation
									JOINT left_hand
									{
										OFFSET	-110.7	-3.89999	13.6
										CHANNELS 3  Xrotation Yrotation Zrotation
										JOINT left_ee
										{
											OFFSET	-80.8	-5.10001	12.1
											CHANNELS 3  Xrotation Yrotation Zrotation
											End Site
											{
												OFFSET	1	0	0
											}
										}
									}
								}
							}
						}
					}
					JOINT right_clavicle
					{
						OFFSET	43.2	22.4	-70.8
						CHANNELS 3  Xrotation Yrotation Zrotation
						JOINT right_shoulder
						{
							OFFSET	93.9	-5.79999	48.7
							CHANNELS 3  Xrotation Yrotation Zrotation
							JOINT right_elbow
							{
								OFFSET	291.4	-30.8	15.2
								CHANNELS 3  Xrotation Yrotation Zrotation
								JOINT right_lowarm_twist
								{
									OFFSET	110.7	-3.89999	13.6
									CHANNELS 3  Xrotation Yrotation Zrotation
									JOINT right_hand
									{
										OFFSET	110.7	-3.89999	13.6
										CHANNELS 3  Xrotation Yrotation Zrotation
										JOINT right_ee
										{
											OFFSET	80.8	-5.10001	12.1
											CHANNELS 3  Xrotation Yrotation Zrotation
											End Site
											{
												OFFSET	1	0	0
											}
										}
									}
								}
							}
						}
					}
				}
			}
		}
	}
	JOINT left_hip
	{
		OFFSET	-82.8	-127.5	0.300001
		CHANNELS 3  Xrotation Yrotation Zrotation
		JOINT left_knee
		{
			OFFSET	-28.2	-396.7	2.2
			CHANNELS 3  Xrotation Yrotation Zrotation
			JOINT left_ankle
			{
				OFFSET	-11.7	-411.3	35.4
				CHANNELS 3  Xrotation Yrotation Zrotation
				JOINT left_toes
				{
					OFFSET	0	-60	-88.6
					CHANNELS 3  Xrotation Yrotation Zrotation
					JOINT left_foot_ee
					{
						OFFSET	-22.5	-16.5	-42.2
						CHANNELS 3  Xrotation Yrotation Zrotation
						End Site
						{
							OFFSET	1	0	0
						}
					}
				}
			}
		}
	}
	JOINT right_hip
	{
		OFFSET	82.8	-127.5	0.300001
		CHANNELS 3  Xrotation Yrotation Zrotation
		JOINT right_knee
		{
			OFFSET	28.2	-396.7	2.2
			CHANNELS 3  Xrotation Yrotation Zrotation
			JOINT right_ankle
			{
				OFFSET	11.7	-411.3	35.4
				CHANNELS 3  Xrotation Yrotation Zrotation
				JOINT right_toes
				{
					OFFSET	0	-60	-88.6
					CHANNELS 3  Xrotation Yrotation Zrotation
					JOINT right_foot_ee
					{
						OFFSET	22.5	-16.5	-42.2
						CHANNELS 3  Xrotation Yrotation Zrotation
						End Site
						{
							OFFSET	1	0	0
						}
					}
				}
			}
		}
	}
}
MOTION
Frames: 11
Frame Time: 0.02
739.156 661.364 -542.172 164.579 -76.4553 166.856 -3.19842 1.04413 2.90702 -3.19413 0.857119 2.9675 -3.14188 0.0455413 3.08836 -3.1548 0.53249 3.04249 -17.7734 3.48626 -9.37653 -17.696 11.8337 -7.46242 -0.0 0.0 -0.0 -0.186872 8.5389 0.684495 -19.5372 -25.2944 75.1805 0.207789 -5.87704 0.0106662 -68.8416 -6.39828 5.29036 -2.36783 18.2798 -6.89661 -0.0 0.0 -0.0 10.4061 29.0035 -19.4239 3.4199 16.5464 -54.1397 2.93019 55.425 -1.53944 39.0556 0.301053 4.88471 4.97287 -10.937 -39.6489 0.0 0.0 0.0 40.9602 16.6135 -17.5407 -23.6675 0.234095 3.59868 -0.675075 12.1122 0.0991515 -40.1549 0.0 0.0 -0.0 0.0 -0.0 -13.3076 32.548 -5.14354 -30.0444 -0.0423641 -4.55804 40.3019 -2.16613 4.88945 -0.49973 0.0 0.0 0.0 0.0 0.0 
756.262 660.3 -547.54 166.728 -76.0277 168.775 -3.06836 1.16158 2.83144 -3.06443 0.979137 2.89955 -3.00736 0.188506 3.05446 -3.01976 0.66832 2.98647 -17.5454 3.67879 -7.527 -17.5352 11.2163 -5.6684 -0.0 0.0 -0.0 -0.25896 8.37312 0.537356 -19.3408 -25.387 75.0784 0.211965 -5.9943 0.011098 -69.0398 -6.42354 5.29261 -2.18102 17.302 -6.25078 -0.0 0.0 -0.0 10.7339 29.2042 -20.1318 3.45033 15.9308 -53.5269 2.87164 54.8832 -1.49139 38.6617 0.28149 4.8383 4.90093 -11.2062 -39.1198 0.0 0.0 0.0 41.2859 16.1507 -17.4598 -25.4629 0.190943 3.8708 -1.04319 11.3113 0.153223 -40.0645 0.0 0.0 -0.0 0.0 -0.0 -13.9426 33.6078 -4.54807 -29.6015 -0.0591229 -4.49214 39.6053 -2.21933 4.82917 0.389996 -0.0 -0.0 0.0 0.0 0.0 
780.184 663.357 -554.271 168.585 -75.9903 170.538 -2.78459 1.12547 2.83275 -2.78062 0.943011 2.89855 -2.72585 0.168808 3.0433 -2.73819 0.647107 2.97855 -17.6416 2.62507 -6.67819 -17.6074 8.71428 -5.26252 -0.0 0.0 -0.0 -0.0659576 8.15639 0.851317 -19.9656 -25.6845 74.2839 0.211863 -5.99143 0.0110873 -69.3518 -6.46332 5.29597 -1.7351 15.2495 -4.50201 -0.0 0.0 -0.0 11.1435 29.0567 -21.0701 3.62882 14.9064 -52.9082 2.44335 50.4288 -1.15064 39.1636 0.306474 4.89742 4.56405 -10.3116 -36.0518 0.0 0.0 0.0 41.5379 16.1292 -17.3816 -28.8021 0.0880824 4.37287 -1.86662 9.87434 0.27441 -39.4591 0.0 0.0 -0.0 0.0 -0.0 -15.0146 34.9319 -4.16773 -29.2994 -0.0702615 -4.44712 39.3426 -3.01623 4.80344 1.01515 -0.0 -0.0 0.0 0.0 0.0 
809.113 672.106 -562.97 173.792 -75.4111 176.209 -2.61045 1.04949 2.76153 -2.60663 0.871714 2.82265 -2.55728 0.127937 2.95132 -2.56895 0.59224 2.89417 -13.8779 3.15869 -5.93819 -13.8462 9.66259 -4.66453 -0.0 0.0 -0.0 -0.172887 8.17023 0.664234 -19.6708 -26.0339 74.7588 0.259742 -7.33205 0.0166422 -70.0873 -6.55716 5.30303 -1.50572 13.396 -3.93863 -0.0 0.0 -0.0 11.4272 29.1937 -21.6907 1.98391 14.4377 -53.5606 2.36237 49.4783 -1.08865 40.1538 0.357288 5.01342 4.47713 -7.62138 -34.4621 0.0 0.0 0.0 41.9987 16.0525 -17.8559 -32.6184 -0.0650993 4.93839 0.827998 8.07574 -0.12093 -38.4509 0.0 0.0 -0.0 0.0 -0.0 -15.2377 35.9297 -4.11077 -29.0814 -0.078153 -4.41459 35.3909 -5.51752 4.43622 0.256814 -0.0 -0.0 0.0 0.0 0.0 
835.128 674.961 -566.268 174.838 -74.8653 177.18 -2.46415 0.791103 2.79483 -2.46001 0.611731 2.83946 -2.42379 -0.121392 2.90202 -2.43539 0.338256 2.88481 -14.2354 2.61478 -3.23116 -14.2434 6.9516 -2.2336 -0.0 0.0 -0.0 -0.308173 7.50575 0.342542 -19.0631 -25.6497 75.3797 0.191647 -5.42334 0.00907701 -70.508 -6.61087 5.30653 0.116462 -4.04854 -0.929975 -0.0 0.0 -0.0 10.8497 28.3297 -20.5014 1.77055 16.0172 -55.511 2.21287 47.621 -0.976574 40.075 0.353171 5.00422 4.6075 -6.26275 -35.035 0.0 0.0 0.0 41.6782 16.0777 -17.8321 -37.317 -0.304959 5.619 10.5507 10.1165 -1.49797 -40.1723 0.0 0.0 -0.0 0.0 -0.0 -15.7401 36.4972 -3.7901 -28.8633 -0.0859237 -4.38202 34.1961 -5.51555 4.31972 1.09367 -0.0 -0.0 0.0 0.0 0.0 
868.036 671.311 -567.325 173.845 -75.5117 176.483 -2.25043 0.540404 2.77921 -2.24621 0.362532 2.80794 -2.22335 -0.345134 2.81013 -2.23435 0.102821 2.82936 -13.961 3.86979 -2.90059 -13.9998 9.15331 -1.5391 -0.0 0.0 -0.0 -0.669604 8.32302 -0.192685 -20.4252 -26.2267 74.358 0.301017 -8.48134 0.0223202 -70.3894 -6.59573 5.30558 0.0998865 -9.01513 -3.15568 -0.0 0.0 -0.0 10.7197 27.4311 -20.3174 0.607407 16.06 -56.9501 2.04184 45.3213 -0.852546 41.781 0.445126 5.2021 4.48406 -4.92284 -33.5479 0.0 0.0 0.0 40.6654 16.2069 -17.6207 -39.8635 -0.458104 5.97917 14.4831 9.95624 -2.02645 -39.7362 0.0 0.0 -0.0 0.0 -0.0 -15.2346 36.3848 -6.03051 -29.0899 -0.0778491 -4.41585 32.6237 -9.28509 4.16945 1.75513 -0.0 -0.0 0.0 0.0 0.0 
893.551 672.138 -574.598 169.655 -76.6308 172.557 -2.2522 0.422243 2.52147 -2.2487 0.260993 2.54321 -2.23304 -0.378322 2.52843 -2.24196 0.0256082 2.55643 -15.1206 3.42746 -1.87218 -15.1624 7.66432 -0.623751 -0.0 0.0 -0.0 -0.508554 7.97782 0.0467006 -20.3014 -27.0309 73.3045 0.318822 -8.97507 0.0250222 -71.7496 -6.76947 5.31453 0.87236 -12.995 0.349388 -0.0 0.0 -0.0 10.7623 27.0118 -20.4618 -0.541078 16.2641 -56.7973 1.78879 41.5407 -0.678485 43.0387 0.516682 5.34621 4.14526 -4.64927 -30.7803 0.0 0.0 0.0 38.2048 15.8477 -16.494 -41.4254 -0.559934 6.19666 19.7247 8.35454 -2.69711 -39.7823 0.0 0.0 -0.0 0.0 -0.0 -15.1252 36.72 -6.72132 -31.4156 0.0127516 -4.76124 31.9792 -9.85262 4.10554 1.32804 -0.0 -0.0 0.0 0.0 0.0 
918.968 675.648 -575.974 169.252 -76.5168 172.263 -1.97844 0.2397 2.30316 -1.97549 0.0926987 2.31374 -1.96882 -0.474037 2.26658 -1.97598 -0.110224 2.31297 -15.9678 3.73619 -0.756809 -16.0224 7.59756 0.58983 -0.0 0.0 -0.0 -0.652424 7.25553 -0.303646 -19.4091 -28.1117 72.2429 0.390639 -10.9522 0.0374498 -72.9685 -6.92525 5.31902 2.17483 -20.2688 5.79241 -0.0 0.0 -0.0 10.7067 27.3132 -20.3019 -2.41244 17.0454 -58.019 1.64768 39.2186 -0.587049 44.3446 0.594315 5.49416 3.87815 -4.90487 -28.828 0.0 0.0 0.0 35.1907 15.4199 -15.3231 -42.1908 -0.611999 6.30222 23.7668 10.9152 -3.19481 -40.0313 0.0 0.0 -0.0 0.0 -0.0 -14.6714 36.8198 -7.36022 -32.4073 0.0556443 -4.90738 30.9874 -12.8569 4.02104 1.02991 -0.0 -0.0 0.0 0.0 0.0 
945.285 677.97 -586.6 164.986 -77.526 167.049 -1.84976 0.368459 2.22725 -1.84703 0.226023 2.24617 -1.8353 -0.322946 2.2343 -1.84226 0.0338809 2.25726 -16.6416 3.69099 -0.541405 -16.6981 7.38985 0.820592 -0.0 0.0 -0.0 -0.729074 6.61417 -0.526543 -18.6274 -28.9439 71.0458 0.442714 -12.3698 0.0479762 -76.6684 -7.39788 5.31218 3.8129 -25.4496 13.9975 -0.0 0.0 -0.0 8.98846 27.8 -16.4139 -3.59789 17.0074 -60.557 1.47829 36.2131 -0.483391 46.2355 0.71268 5.70521 3.61371 -3.78889 -26.4293 0.0 0.0 0.0 31.0632 15.4926 -12.2702 -40.8804 -0.523725 6.12108 26.518 11.5081 -3.51798 -40.1894 0.0 0.0 -0.0 0.0 -0.0 -13.6528 35.3784 -8.76083 -34.5975 0.159305 -5.22741 28.5601 -18.9587 3.82477 0.91369 -0.0 -0.0 0.0 0.0 0.0 
967.97 681.455 -592.258 164.042 -78.4346 166.218 -1.68236 0.20569 2.07309 -1.67997 0.0733859 2.08197 -1.67513 -0.425794 2.03931 -1.68092 -0.0984534 2.08094 -18.1154 3.58456 -0.0419527 -18.1735 6.91869 1.34171 -0.0 0.0 -0.0 -0.798744 6.15972 -0.713569 -16.2067 -28.8116 69.8876 0.487802 -13.5849 0.058102 -76.0332 -7.31682 5.31554 4.06464 -28.4705 13.9346 -0.0 0.0 -0.0 7.4414 27.767 -13.0077 -4.24342 17.3692 -63.7743 1.40909 34.9138 -0.443138 47.4098 0.789679 5.83429 3.53636 -3.36214 -25.6953 0.0 0.0 0.0 28.2092 15.6389 -10.7657 -39.571 -0.4397 5.93814 30.7894 15.5917 -4.02723 -39.5917 0.0 0.0 -0.0 0.0 -0.0 -13.2079 35.071 -9.25811 -35.5296 0.207125 -5.36238 27.0749 -18.074 3.64179 0.108948 -0.0 -0.0 0.0 0.0 0.0 
989.82 680.476 -600.109 162.746 -78.4212 165.523 -1.54099 0.267134 1.8172 -1.53916 0.15098 1.83051 -1.53262 -0.285822 1.81436 -1.53722 0.00425867 1.83672 -18.5651 3.21633 -1.24544 -18.6209 6.85484 0.103291 -0.0 0.0 -0.0 -0.706891 5.7181 -0.606072 -14.0784 -29.4732 69.1301 0.478767 -13.3423 0.0559983 -78.1406 -7.5855 5.30092 4.96182 -28.1424 20.0273 -0.0 0.0 -0.0 6.65304 28.1618 -11.2378 -4.21402 17.6878 -66.2463 1.19299 30.5808 -0.326161 47.9393 0.825268 5.89198 3.26375 -4.07441 -23.9656 0.0 0.0 0.0 24.436 12.5774 -9.11357 -38.0541 -0.347635 5.72394 35.4084 11.8627 -4.465 -40.0588 0.0 0.0 -0.0 0.0 -0.0 -12.4553 28.9528 -7.37927 -36.8676 0.279608 -5.55476 23.7877 -19.4027 3.2677 -0.571707 0.0 0.0 0.0 0.0 0.0 
